<svg width="12" height="12" viewBox="0 0 12 12" fill="none" xmlns="http://www.w3.org/2000/svg">
<path d="M3.205 4.5H8.79499C8.89388 4.50041 8.99042 4.53014 9.07241 4.58542C9.1544 4.6407 9.21816 4.71906 9.25563 4.81057C9.29309 4.90209 9.30257 5.00266 9.28288 5.09957C9.26319 5.19647 9.2152 5.28536 9.14499 5.355L6.35499 8.145C6.30851 8.19186 6.25321 8.22906 6.19228 8.25444C6.13135 8.27983 6.066 8.29289 5.99999 8.29289C5.93399 8.29289 5.86864 8.27983 5.80771 8.25444C5.74678 8.22906 5.69148 8.19186 5.64499 8.145L2.855 5.355C2.78479 5.28536 2.7368 5.19647 2.71711 5.09957C2.69741 5.00266 2.7069 4.90209 2.74436 4.81057C2.78182 4.71906 2.84558 4.6407 2.92757 4.58542C3.00957 4.53014 3.10611 4.50041 3.205 4.5V4.5Z" fill="#DBE2EF"/>
</svg>
