<svg width="16" height="16" viewBox="0 0 16 16" fill="none" xmlns="http://www.w3.org/2000/svg">
<g clip-path="url(#clip0_91_389)">
<path d="M8 1L7.3636 0.363604L8 -0.272792L8.6364 0.363604L8 1ZM8.9 10C8.9 10.4971 8.49706 10.9 8 10.9C7.50294 10.9 7.1 10.4971 7.1 10L8.9 10ZM2.3636 5.3636L7.3636 0.363604L8.6364 1.6364L3.6364 6.6364L2.3636 5.3636ZM8.6364 0.363604L13.6364 5.3636L12.3636 6.6364L7.3636 1.6364L8.6364 0.363604ZM8.9 1L8.9 10L7.1 10L7.1 1L8.9 1Z" fill="current" stroke="none"/>
<path d="M1 12L1 13C1 14.1046 1.89543 15 3 15L13 15C14.1046 15 15 14.1046 15 13V12" fill="none" stroke="current" stroke-width="1.8"/>
</g>
<defs>
<clipPath id="clip0_91_389"  fill="none">
<rect width="16" height="16" fill="current" stroke="none" />
</clipPath>
</defs>
</svg>
